HIERARCHY
ROOT Hips
{
	OFFSET	0.00	0.00	0.00
	CHANNELS 6 Xposition Yposition Zposition Zrotation Xrotation Yrotation
	JOINT LeftUpperLeg
	{
		OFFSET	-0.060319	 0.002079	 0.072983
		CHANNELS 3 Zrotation Xrotation Yrotation
		JOINT LeftLowerLeg
		{
			OFFSET	 0.351798	-0.008011	 0.005146
			CHANNELS 3 Zrotation Xrotation Yrotation
			JOINT LeftFoot
			{
				OFFSET	 0.378666	 0.003828	-0.003777
				CHANNELS 3 Zrotation Xrotation Yrotation
				JOINT LeftToes
				{
					OFFSET	 0.084296	 0.047710	-0.003922
					CHANNELS 3 Zrotation Xrotation Yrotation
					End Site
					{
						OFFSET	 0.084296	 0.047710	-0.003922
					}
				}
			}
		}
	}
	JOINT RightUpperLeg
	{
		OFFSET	-0.060836	 0.002079	-0.072553
		CHANNELS 3 Zrotation Xrotation Yrotation
		JOINT RightLowerLeg
		{
			OFFSET	 0.351364	-0.008011	-0.018234
			CHANNELS 3 Zrotation Xrotation Yrotation
			JOINT RightFoot
			{
				OFFSET	 0.378545	 0.003824	-0.010315
				CHANNELS 3 Zrotation Xrotation Yrotation
				JOINT RightToes
				{
					OFFSET	 0.084392	 0.047660	 0.002026
					CHANNELS 3 Zrotation Xrotation Yrotation
					End Site
					{
						OFFSET	 0.084392	 0.047660	 0.002026
					}
				}
			}
		}
	}
	JOINT Character1_Spine
	{
		OFFSET	 0.022713	 0.008182	-0.000081
		CHANNELS 3 Zrotation Xrotation Yrotation
		JOINT Spine
		{
			OFFSET	 0.091343	 0.001755	-0.000000
			CHANNELS 3 Zrotation Xrotation Yrotation
			JOINT Chest
			{
				OFFSET	 0.087667	-0.000304	-0.000000
				CHANNELS 3 Zrotation Xrotation Yrotation
				JOINT LeftShoulder
				{
					OFFSET	 0.122367	-0.001395	 0.042227
					CHANNELS 3 Zrotation Xrotation Yrotation
					JOINT LeftUpperArm
					{
						OFFSET	 0.055437	-0.000000	 0.000001
						CHANNELS 3 Zrotation Xrotation Yrotation
						JOINT LeftLowerArm
						{
							OFFSET	 0.233777	 0.000017	 0.000012
							CHANNELS 3 Zrotation Xrotation Yrotation
							JOINT LeftHand
							{
								OFFSET	 0.162482	-0.000001	 0.000000
								CHANNELS 3 Zrotation Xrotation Yrotation
								JOINT LeftIndexProximal
								{
									OFFSET	 0.080749	 0.025713	-0.001428
									CHANNELS 3 Zrotation Xrotation Yrotation
									JOINT LeftIndexIntermediate
									{
										OFFSET	 0.024260	 0.002507	-0.001187
										CHANNELS 3 Zrotation Xrotation Yrotation
										JOINT LeftIndexDistal
										{
											OFFSET	 0.016097	 0.000118	-0.000458
											CHANNELS 3 Zrotation Xrotation Yrotation
											End Site
											{
												OFFSET	 0.016097	 0.000118	-0.000458
											}
										}
									}
								}
								JOINT LeftMiddleProximal
								{
									OFFSET	 0.080696	 0.005822	-0.006021
									CHANNELS 3 Zrotation Xrotation Yrotation
									JOINT LeftMiddleIntermediate
									{
										OFFSET	 0.025063	 0.001482	 0.003794
										CHANNELS 3 Zrotation Xrotation Yrotation
										JOINT LeftMiddleDistal
										{
											OFFSET	 0.019431	-0.000068	 0.000162
											CHANNELS 3 Zrotation Xrotation Yrotation
											End Site
											{
												OFFSET	 0.019431	-0.000068	 0.000162
											}
										}
									}
								}
								JOINT LeftLittleProximal
								{
									OFFSET	 0.065753	-0.027836	-0.002284
									CHANNELS 3 Zrotation Xrotation Yrotation
									JOINT LeftLittleIntermediate
									{
										OFFSET	 0.018097	 0.000133	-0.000014
										CHANNELS 3 Zrotation Xrotation Yrotation
										JOINT LeftLittleDistal
										{
											OFFSET	 0.013911	 0.000003	 0.000248
											CHANNELS 3 Zrotation Xrotation Yrotation
											End Site
											{
												OFFSET	 0.013911	 0.000003	 0.000248
											}
										}
									}
								}
								JOINT LeftRingProximal
								{
									OFFSET	 0.076793	-0.012626	-0.006246
									CHANNELS 3 Zrotation Xrotation Yrotation
									JOINT LeftRingIntermediate
									{
										OFFSET	 0.023683	-0.000754	 0.001098
										CHANNELS 3 Zrotation Xrotation Yrotation
										JOINT LeftRingDistal
										{
											OFFSET	 0.015907	 0.000167	-0.000861
											CHANNELS 3 Zrotation Xrotation Yrotation
											End Site
											{
												OFFSET	 0.015907	 0.000167	-0.000861
											}
										}
									}
								}
								JOINT LeftThumbProximal
								{
									OFFSET	 0.024761	 0.018266	 0.014236
									CHANNELS 3 Zrotation Xrotation Yrotation
									JOINT LeftThumbIntermediate
									{
										OFFSET	 0.032146	 0.001986	 0.001523
										CHANNELS 3 Zrotation Xrotation Yrotation
										JOINT LeftThumbDistal
										{
											OFFSET	 0.017566	-0.001003	 0.000085
											CHANNELS 3 Zrotation Xrotation Yrotation
											End Site
											{
												OFFSET	 0.017566	-0.001003	 0.000085
											}
										}
									}
								}
							}
						}
					}
				}
				JOINT Neck
				{
					OFFSET	 0.156851	 0.008298	 0.000287
					CHANNELS 3 Zrotation Xrotation Yrotation
					JOINT Head
					{
						OFFSET	 0.078083	-0.005535	-0.000000
						CHANNELS 3 Zrotation Xrotation Yrotation
						End Site
						{
							OFFSET	 0.078083	-0.005535	-0.000000
						}
					}
				}
				JOINT RightShoulder
				{
					OFFSET	 0.122455	-0.000150	-0.041994
					CHANNELS 3 Zrotation Xrotation Yrotation
					JOINT RightUpperArm
					{
						OFFSET	 0.055437	 0.000000	-0.000001
						CHANNELS 3 Zrotation Xrotation Yrotation
						JOINT RightLowerArm
						{
							OFFSET	 0.233779	 0.000017	-0.000013
							CHANNELS 3 Zrotation Xrotation Yrotation
							JOINT RightHand
							{
								OFFSET	 0.162480	-0.000001	 0.000002
								CHANNELS 3 Zrotation Xrotation Yrotation
								JOINT RightIndexProximal
								{
									OFFSET	 0.077459	 0.024774	 0.023877
									CHANNELS 3 Zrotation Xrotation Yrotation
									JOINT RightIndexIntermediate
									{
										OFFSET	 0.024233	-0.002230	-0.002009
										CHANNELS 3 Zrotation Xrotation Yrotation
										JOINT RightIndexDistal
										{
											OFFSET	 0.015886	 0.000001	-0.002642
											CHANNELS 3 Zrotation Xrotation Yrotation
											End Site
											{
												OFFSET	 0.015886	 0.000001	-0.002642
											}
										}
									}
								}
								JOINT RightMiddleProximal
								{
									OFFSET	 0.077341	 0.004360	 0.024111
									CHANNELS 3 Zrotation Xrotation Yrotation
									JOINT RightMiddleIntermediate
									{
										OFFSET	 0.025355	-0.000680	 0.001169
										CHANNELS 3 Zrotation Xrotation Yrotation
										JOINT RightMiddleDistal
										{
											OFFSET	 0.019416	-0.000417	-0.000705
											CHANNELS 3 Zrotation Xrotation Yrotation
											End Site
											{
												OFFSET	 0.019416	-0.000417	-0.000705
											}
										}
									}
								}
								JOINT RightLittleProximal
								{
									OFFSET	 0.065019	-0.027722	 0.010366
									CHANNELS 3 Zrotation Xrotation Yrotation
									JOINT RightLittleIntermediate
									{
										OFFSET	 0.018098	-0.000144	-0.000053
										CHANNELS 3 Zrotation Xrotation Yrotation
										JOINT RightLittleDistal
										{
											OFFSET	 0.013886	 0.000267	 0.000828
											CHANNELS 3 Zrotation Xrotation Yrotation
											End Site
											{
												OFFSET	 0.013886	 0.000267	 0.000828
											}
										}
									}
								}
								JOINT RightRingProximal
								{
									OFFSET	 0.074304	-0.013711	 0.019656
									CHANNELS 3 Zrotation Xrotation Yrotation
									JOINT RightRingIntermediate
									{
										OFFSET	 0.023458	-0.000008	-0.003508
										CHANNELS 3 Zrotation Xrotation Yrotation
										JOINT RightRingDistal
										{
											OFFSET	 0.015894	-0.001033	 0.000378
											CHANNELS 3 Zrotation Xrotation Yrotation
											End Site
											{
												OFFSET	 0.015894	-0.001033	 0.000378
											}
										}
									}
								}
								JOINT RightThumbProximal
								{
									OFFSET	 0.026339	 0.020861	-0.004527
									CHANNELS 3 Zrotation Xrotation Yrotation
									JOINT RightThumbIntermediate
									{
										OFFSET	 0.032030	 0.001128	 0.000602
										CHANNELS 3 Zrotation Xrotation Yrotation
										JOINT RightThumbDistal
										{
											OFFSET	 0.017586	 0.000511	 0.000152
											CHANNELS 3 Zrotation Xrotation Yrotation
											End Site
											{
												OFFSET	 0.017586	 0.000511	 0.000152
											}
										}
									}
								}
							}
						}
					}
				}
			}
		}
	}
}
MOTION
Frames:    4
Frame Time: 0.1428571
-0.186549	 0.507014	-0.757863	 108.623700	-29.294650	 9.159908	 10.179950	-52.150020	-73.783960	-53.807970	-2.013857	-102.838800	 54.709920	-19.800330	 19.855330	 62.519460	-3.188659	 0.006148	-21.945530	 8.474244	 154.517000	-96.992100	-39.890010	 6.991588	 36.280640	 30.007620	-15.853240	 62.519680	-0.000152	 0.006819	 4.902136	 0.017393	 0.202796	 43.461960	-18.591810	-14.810890	-17.352180	-0.847073	 0.059906	 18.089590	 0.786613	-90.318680	 60.809300	-55.757640	 20.270890	 95.937740	-19.890480	 112.099700	 129.902300	-5.581552	-97.791160	 0.400901	 11.965310	-4.748454	 0.477874	 0.266074	 1.215439	-0.546671	 0.281770	 7.091043	-6.028159	 6.440647	 2.122423	 1.345341	-3.951414	-7.945199	-1.888770	-2.723091	 6.121307	-24.889980	-9.392361	-17.565870	-2.647219	 2.127349	 1.980443	 0.159782	-1.149520	 1.319157	-14.969960	-7.591256	-10.839200	-0.178069	 2.674636	-6.625014	 0.386537	-3.212840	 3.918352	 164.427200	 55.870460	-127.805100	 6.634563	-0.414953	-3.399435	-4.256975	 0.117892	-1.694328	 29.471820	-20.265390	-9.707043	-5.014379	 27.414820	 2.155322	 18.089590	 0.786612	 89.678790	 151.140000	 73.915990	-66.880760	 43.514440	 3.869274	-5.484819	 30.345580	-2.914846	 15.227250	-177.389600	-8.831868	-175.013600	-0.016568	-3.219298	-3.883214	 0.855641	-4.408458	 1.686657	 177.319100	-9.036760	-172.642800	 1.241053	-1.979778	-4.426968	-0.113596	 0.528879	-4.788302	 158.169100	-26.491550	 168.876600	 1.386256	 2.855342	 4.611974	 0.094532	 2.019469	-1.637273	 166.453600	-25.945450	 166.554900	 2.005292	-2.321953	 9.005940	-2.970803	-0.971437	-2.537858	 7.912983	 55.262230	 25.182600	 0.027068	 3.778531	-1.271253	 1.596345	-1.114234	-1.334432
-0.170599	 0.506859	-0.757601	 109.424100	-31.883700	 10.347320	-0.188880	-40.522680	-86.226550	-42.300710	-10.545050	-99.178230	 50.223680	-19.308850	 16.258540	 62.519460	-3.188659	 0.006148	-26.034840	 9.701579	 155.991000	-102.669700	-30.237420	 3.903221	 33.291760	 22.422860	-9.723224	 62.519680	-0.000152	 0.006819	 4.902136	 0.017393	 0.202796	 45.164160	-24.520080	-17.945730	-17.352180	-0.847073	 0.059906	 18.089590	 0.786613	-90.318680	 59.051300	-58.784630	 16.261200	 89.189310	-7.441171	 98.594740	 176.839000	 48.649910	 172.158100	 0.400901	 11.965310	-4.748454	 0.477874	 0.266074	 1.215439	-0.546671	 0.281770	 7.091043	-6.028159	 6.440647	 2.122423	 1.345341	-3.951414	-7.945199	-1.888770	-2.723091	 6.121307	-24.889980	-9.392361	-17.565870	-2.647219	 2.127349	 1.980443	 0.159782	-1.149520	 1.319157	-14.969960	-7.591256	-10.839200	-0.178069	 2.674636	-6.625014	 0.386537	-3.212840	 3.918352	 164.427200	 55.870460	-127.805100	 6.634563	-0.414953	-3.399435	-4.256975	 0.117892	-1.694328	 26.085120	-17.737540	-9.531129	-8.538754	 34.736460	 4.136892	 18.089590	 0.786612	 89.678790	-155.010100	 72.192950	-106.446300	 32.493410	-14.412390	 7.834968	 23.876560	-0.215015	 2.261576	-177.389600	-8.831868	-175.013600	-0.016568	-3.219298	-3.883214	 0.855641	-4.408458	 1.686657	 177.319100	-9.036760	-172.642800	 1.241053	-1.979778	-4.426968	-0.113596	 0.528879	-4.788302	 158.169100	-26.491550	 168.876600	 1.386256	 2.855342	 4.611974	 0.094532	 2.019469	-1.637273	 166.453600	-25.945450	 166.554900	 2.005292	-2.321953	 9.005940	-2.970803	-0.971437	-2.537858	 7.912983	 55.262230	 25.182600	 0.027068	 3.778531	-1.271253	 1.596345	-1.114234	-1.334432
-0.167263	 0.507425	-0.668966	 108.941400	-30.654110	 9.721241	-47.725670	-33.357230	-150.875800	-33.085590	-9.831921	-25.861710	 43.538400	-31.620520	 21.452900	 62.519460	-3.188659	 0.006148	-25.325300	 9.423937	 155.886300	-99.604690	-35.818550	 6.498615	 32.699420	 26.703430	-11.835180	 62.519680	-0.000152	 0.006819	 4.902136	 0.017393	 0.202796	 46.077670	-24.918180	-17.647000	-17.352180	-0.847073	 0.059906	 18.089590	 0.786613	-90.318680	 35.908530	-58.434710	 4.692201	 81.196970	-19.995900	 70.460730	 146.488900	 83.304530	-167.818600	 0.400901	 11.965310	-4.748454	 0.477874	 0.266074	 1.215439	-0.546671	 0.281770	 7.091043	-6.028159	 6.440647	 2.122423	 1.345341	-3.951414	-7.945199	-1.888770	-2.723091	 6.121307	-24.889980	-9.392361	-17.565870	-2.647219	 2.127349	 1.980443	 0.159782	-1.149520	 1.319157	-14.969960	-7.591256	-10.839200	-0.178069	 2.674636	-6.625014	 0.386537	-3.212840	 3.918352	 164.427200	 55.870460	-127.805100	 6.634563	-0.414953	-3.399435	-4.256975	 0.117892	-1.694328	 26.323900	-16.171550	-8.148890	-6.053471	 35.840520	 0.976608	 18.089590	 0.786612	 89.678790	-163.825200	 81.550100	-101.156800	 35.118480	-31.454180	 19.066440	 47.107040	 16.939990	-16.975630	-177.389600	-8.831868	-175.013600	-0.016568	-3.219298	-3.883214	 0.855641	-4.408458	 1.686657	 177.319100	-9.036760	-172.642800	 1.241053	-1.979778	-4.426968	-0.113596	 0.528879	-4.788302	 158.169100	-26.491550	 168.876600	 1.386256	 2.855342	 4.611974	 0.094532	 2.019469	-1.637273	 166.453600	-25.945450	 166.554900	 2.005292	-2.321953	 9.005940	-2.970803	-0.971437	-2.537858	 7.912983	 55.262230	 25.182600	 0.027068	 3.778531	-1.271253	 1.596345	-1.114234	-1.334432
 0.524300	 0.716980	-0.342429	 87.244510	-34.159760	-1.751575	-39.255870	-6.210083	-170.865500	-30.772340	 1.627525	 7.937891	 22.439920	-20.522880	 4.111982	 62.519460	-3.188659	 0.006148	-11.864820	 4.465810	 152.062400	-8.712682	 2.898280	 56.218370	 7.758777	 53.655710	-2.900741	 62.519680	-0.000152	 0.006819	 4.902136	 0.017393	 0.202796	 40.724670	-9.881869	-8.908664	-17.352180	-0.847073	 0.059906	 18.089590	 0.786613	-90.318680	 25.708130	-56.489910	-10.582830	 90.674720	 2.610075	 29.948990	 14.172440	-13.297200	-34.223090	 0.400901	 11.965310	-4.748454	 0.477874	 0.266074	 1.215439	-0.546671	 0.281770	 7.091043	-6.028159	 6.440647	 2.122423	 1.345341	-3.951414	-7.945199	-1.888770	-2.723091	 6.121307	-24.889980	-9.392361	-17.565870	-2.647219	 2.127349	 1.980443	 0.159782	-1.149520	 1.319157	-14.969960	-7.591256	-10.839200	-0.178069	 2.674636	-6.625014	 0.386537	-3.212840	 3.918352	 164.427200	 55.870460	-127.805100	 6.634563	-0.414953	-3.399435	-4.256975	 0.117892	-1.694328	 11.867850	-1.595225	-2.519449	-4.915606	 3.609878	-40.619480	 18.089590	 0.786612	 89.678790	 2.634189	 57.543270	 94.127260	 75.608570	-3.912490	 7.630780	 32.998290	-16.008540	 67.777930	-177.389600	-8.831868	-175.013600	-0.016568	-3.219298	-3.883214	 0.855641	-4.408458	 1.686657	 177.319100	-9.036760	-172.642800	 1.241053	-1.979778	-4.426968	-0.113596	 0.528879	-4.788302	 158.169100	-26.491550	 168.876600	 1.386256	 2.855342	 4.611974	 0.094532	 2.019469	-1.637273	 166.453600	-25.945450	 166.554900	 2.005292	-2.321953	 9.005940	-2.970803	-0.971437	-2.537858	 7.912983	 55.262230	 25.182600	 0.027068	 3.778531	-1.271253	 1.596345	-1.114234	-1.334432
